{"title":"Thirteen Days 2000-AC3 XviD-DVDRip-CC","uid":6809863,"size":1795669648,"categoryP":"video","categoryS":"movies","magnet":"?xt=urn:btih:dbb457b10d67bcde5fd98a0775d5225e3d971a65&amp;dn=Thirteen+Days+2000-AC3+XviD-DVDRip-CC&amp;tr=udp%3A%2F%2Ftracker.openbittorrent.com%3A80&amp;tr=udp%3A%2F%2Fopen.demonii.com%3A1337&amp;tr=udp%3A%2F%2Ftracker.coppersurfer.tk%3A6969&amp;tr=udp%3A%2F%2Fexodus.desync.com%3A6969","seeders":0,"leechers":1,"uploader":"Caveman44","files":-1,"time":1321009135,"description":"[img]http://img827.imageshack.us/img827/3213/thirteendays.jpg[/img]\n &lt;a href=&quot;\nhttp://www.imdb.com/title/tt0146309/&quot; rel=&quot;nofollow&quot; target=&quot;_NEW&quot;&gt;\nhttp://www.imdb.com/title/tt0146309/&lt;/a&gt;\n\nSample and Screens included.\n\nSubs: Danish, Dutch, English, Finnish, Norwegian, Portuguese, Spanish and Swedish.\n\nGeneral\nComplete name                    : Thirteen Days 2000-AC3 XviD-DVDRip-CC.avi\nFormat                           : AVI\nFormat/Info                      : Audio Video Interleave\nFile size                        : 1.66 GiB\nDuration                         : 2h 19mn\nOverall bit rate                 : 1 700 Kbps\nWriting application              : VirtualDubMod 1.5.4.1 (build 2178/release)\nWriting library                  : VirtualDubMod build 2178/release\n\nVideo\nID                               : 0\nFormat                           : MPEG-4 Visual\nFormat profile                   : Simple@L3\nFormat settings, BVOP            : No\nFormat settings, QPel            : No\nFormat settings, GMC             : No warppoints\nFormat settings, Matrix          : Default (H.263)\nCodec ID                         : XVID\nCodec ID/Hint                    : XviD\nDuration                         : 2h 19mn\nBit rate                         : 1 242 Kbps\nWidth                            : 720 pixels\nHeight                           : 400 pixels\nDisplay aspect ratio             : 16:9\nFrame rate                       : 25.000 fps\nResolution                       : 8 bits\nColorimetry                      : 4:2:0\nScan type                        : Progressive\nBits/(Pixel*Frame)               : 0.172\nStream size                      : 1.21 GiB (73%)\nWriting library                  : XviD 1.1.2 (UTC 2006-11-01)\n\nAudio\nID                               : 1\nFormat                           : AC-3\nFormat/Info                      : Audio Coding 3\nCodec ID                         : 2000\nDuration                         : 2h 19mn\nBit rate mode                    : Constant\nBit rate                         : 448 Kbps\nChannel(s)                       : 6 channels\nChannel positions                : Front: L C R, Surround: L R, LFE\nSampling rate                    : 48.0 KHz\nStream size                      : 447 MiB (26%)\nAlignment                        : Split accross interleaves\nInterleave, duration             : 40 ms (1.00 video frame)\nInterleave, preload duration     : 500 ms\n\n\n[img]http://img189.imageshack.us/img189/7062/thirteendays2000ac3xvid.jpg[/img]","torrent":{"xt":"urn:btih:dbb457b10d67bcde5fd98a0775d5225e3d971a65","amp;dn":"Thirteen+Days+2000-AC3+XviD-DVDRip-CC","amp;tr":["udp%3A%2F%2Ftracker.openbittorrent.com%3A80","udp%3A%2F%2Fopen.demonii.com%3A1337","udp%3A%2F%2Ftracker.coppersurfer.tk%3A6969","udp%3A%2F%2Fexodus.desync.com%3A6969"],"infoHash":"dbb457b10d67bcde5fd98a0775d5225e3d971a65","infoHashBuffer":{"type":"Buffer","data":[219,180,87,177,13,103,188,222,95,217,138,7,117,213,34,94,61,151,26,101]},"announce":[],"urlList":[]}}